<svg width="400" height="250" viewBox="0 0 400 250" fill="none" xmlns="http://www.w3.org/2000/svg">
<defs>
<linearGradient id="amazonGradient" x1="0%" y1="0%" x2="100%" y2="100%">
<stop offset="0%" style="stop-color:#a8edea;stop-opacity:1" />
<stop offset="100%" style="stop-color:#fed6e3;stop-opacity:1" />
</linearGradient>
</defs>
<rect width="400" height="250" fill="url(#amazonGradient)" rx="10"/>
<rect x="50" y="50" width="300" height="120" fill="white" opacity="0.9" rx="8"/>
<rect x="70" y="70" width="80" height="60" fill="#a8edea" opacity="0.7" rx="4"/>
<rect x="75" y="75" width="70" height="30" fill="white" rx="2"/>
<text x="110" y="90" font-family="Arial, sans-serif" font-size="8" fill="#333" text-anchor="middle" font-weight="bold">Product 1</text>
<text x="110" y="100" font-family="Arial, sans-serif" font-size="7" fill="#333" text-anchor="middle">$29.99</text>
<rect x="110" y="105" width="30" height="15" fill="#FF9900" rx="2"/>
<text x="125" y="115" font-family="Arial, sans-serif" font-size="6" fill="white" text-anchor="middle" font-weight="bold">4.5★</text>

<rect x="160" y="70" width="80" height="60" fill="#a8edea" opacity="0.7" rx="4"/>
<rect x="165" y="75" width="70" height="30" fill="white" rx="2"/>
<text x="200" y="90" font-family="Arial, sans-serif" font-size="8" fill="#333" text-anchor="middle" font-weight="bold">Product 2</text>
<text x="200" y="100" font-family="Arial, sans-serif" font-size="7" fill="#333" text-anchor="middle">$45.50</text>
<rect x="200" y="105" width="30" height="15" fill="#FF9900" rx="2"/>
<text x="215" y="115" font-family="Arial, sans-serif" font-size="6" fill="white" text-anchor="middle" font-weight="bold">4.2★</text>

<rect x="250" y="70" width="80" height="60" fill="#a8edea" opacity="0.7" rx="4"/>
<rect x="255" y="75" width="70" height="30" fill="white" rx="2"/>
<text x="290" y="90" font-family="Arial, sans-serif" font-size="8" fill="#333" text-anchor="middle" font-weight="bold">Product 3</text>
<text x="290" y="100" font-family="Arial, sans-serif" font-size="7" fill="#333" text-anchor="middle">$19.25</text>
<rect x="290" y="105" width="30" height="15" fill="#FF9900" rx="2"/>
<text x="305" y="115" font-family="Arial, sans-serif" font-size="6" fill="white" text-anchor="middle" font-weight="bold">4.8★</text>

<path d="M 70 140 L 100 140 L 100 145 L 330 145 L 330 140 L 330 150 L 70 150 Z" fill="#a8edea"/>
<text x="200" y="160" font-family="Arial, sans-serif" font-size="10" fill="#333" text-anchor="middle" font-weight="bold">SELENIUM AUTOMATION</text>

<text x="200" y="200" font-family="Arial, sans-serif" font-size="14" fill="white" text-anchor="middle" font-weight="bold">AMAZON DATA SCRAPING</text>
<text x="200" y="220" font-family="Arial, sans-serif" font-size="12" fill="white" text-anchor="middle">Selenium WebDriver</text>
</svg>