<svg width="400" height="250" viewBox="0 0 400 250" fill="none" xmlns="http://www.w3.org/2000/svg">
<defs>
<linearGradient id="speechGradient" x1="0%" y1="0%" x2="100%" y2="100%">
<stop offset="0%" style="stop-color:#43e97b;stop-opacity:1" />
<stop offset="100%" style="stop-color:#38f9d7;stop-opacity:1" />
</linearGradient>
</defs>
<rect width="400" height="250" fill="url(#speechGradient)" rx="10"/>
<circle cx="120" cy="90" r="25" fill="white" opacity="0.9"/>
<path d="M 105 85 C 105 80, 110 75, 120 75 C 130 75, 135 80, 135 85 L 135 95 C 135 100, 130 105, 120 105 C 110 105, 105 100, 105 95 Z" fill="#43e97b"/>
<path d="M 100 105 C 100 115, 108 125, 120 125 C 132 125, 140 115, 140 105" stroke="#43e97b" stroke-width="3" fill="none"/>
<path d="M 120 125 L 120 135" stroke="#43e97b" stroke-width="3"/>
<path d="M 110 135 L 130 135" stroke="#43e97b" stroke-width="3"/>
<path d="M 180 70 Q 200 70, 200 90 Q 200 110, 220 110 L 250 110" stroke="white" stroke-width="3" fill="none" opacity="0.9"/>
<path d="M 180 90 Q 200 90, 200 110 Q 200 130, 220 130 L 250 130" stroke="white" stroke-width="3" fill="none" opacity="0.9"/>
<path d="M 180 110 Q 200 110, 200 130 Q 200 150, 220 150 L 250 150" stroke="white" stroke-width="3" fill="none" opacity="0.9"/>
<rect x="260" y="60" width="80" height="80" fill="white" opacity="0.9" rx="8"/>
<path d="M 280 80 L 290 90 L 320 75 L 320 125 L 290 110 L 280 120 Z" fill="#43e97b"/>
<text x="200" y="200" font-family="Arial, sans-serif" font-size="14" fill="white" text-anchor="middle" font-weight="bold">SPEECH TO SIGN LANGUAGE</text>
<text x="200" y="220" font-family="Arial, sans-serif" font-size="12" fill="white" text-anchor="middle">Google Speech API + ML</text>
</svg>